# File produced by Open Asset Import Library (http://www.assimp.sf.net)
# (assimp v6.0.2253580770)

mtllib 11111.mtl

# 295 vertex positions
v 1.33226763e-15 -6.12303177e-16 -8.81043285e-14
v 16 -6.12303177e-16 -9.16570422e-14
v 16 6.42918336e-14 420
v 1.33226763e-15 -6.12303177e-16 -8.81043285e-14
v 16 6.42918336e-14 420
v 9.45910017e-14 6.42918336e-14 420
v 9.45910017e-14 6.42918336e-14 420
v 16 6.42918336e-14 420
v 16 1700 420
v 9.45910017e-14 6.42918336e-14 420
v 16 1700 420
v 9.45910017e-14 1700 420
v 9.45910017e-14 1700 420
v 16 1700 420
v 16 1700 -9.16570422e-14
v 9.45910017e-14 1700 420
v 16 1700 -9.16570422e-14
v 1.33226763e-15 1700 -8.81043285e-14
v 1.33226763e-15 1700 -8.81043285e-14
v 16 1700 -9.16570422e-14
v 16 2.26761372e-13 -9.16570422e-14
v 1.33226763e-15 1700 -8.81043285e-14
v 16 2.26761372e-13 -9.16570422e-14
v 1.33226763e-15 2.26761372e-13 -8.81043285e-14
v 16 6.42918336e-14 420
v 16 1700 420
v 16 1700 -9.16570422e-14
v 1.33226763e-15 -6.12303177e-16 -8.81043285e-14
v 9.45910017e-14 6.42918336e-14 420
v 9.45910017e-14 6.42918336e-14 420
v 884 -6.12303177e-16 -8.45516148e-14
v 900 -6.12303177e-16 -8.81043285e-14
v 900 6.42918336e-14 420
v 884 -6.12303177e-16 -8.45516148e-14
v 900 6.42918336e-14 420
v 884 6.42918336e-14 420
v 884 6.42918336e-14 420
v 900 6.42918336e-14 420
v 900 1700 420
v 884 6.42918336e-14 420
v 900 1700 420
v 884 1700 420
v 884 1700 420
v 900 1700 420
v 900 1700 -8.81043285e-14
v 884 1700 420
v 900 1700 -8.81043285e-14
v 884 1700 -8.45516148e-14
v 884 1700 -8.45516148e-14
v 900 1700 -8.81043285e-14
v 900 2.26761372e-13 -8.81043285e-14
v 884 1700 -8.45516148e-14
v 900 2.26761372e-13 -8.81043285e-14
v 884 2.26761372e-13 -8.45516148e-14
v 900 6.42918336e-14 420
v 900 1700 420
v 900 1700 -8.81043285e-14
v 884 -6.12303177e-16 -8.45516148e-14
v 884 6.42918336e-14 420
v 884 6.42918336e-14 420
v 16 2.95184341e-14 16
v 16 2.95184341e-14 -1.3251325e-13
v 884 -6.84500742e-14 -1.3251325e-13
v 16 2.95184341e-14 16
v 884 -6.84500742e-14 -1.3251325e-13
v 884 -6.84500742e-14 16
v 884 -6.84500742e-14 16
v 884 -6.84500742e-14 -1.3251325e-13
v 884 158.5 -1.3251325e-13
v 884 -6.84500742e-14 16
v 884 158.5 -1.3251325e-13
v 884 158.5 16
v 884 158.5 16
v 884 158.5 -1.3251325e-13
v 16 158.5 -1.3251325e-13
v 884 158.5 16
v 16 158.5 -1.3251325e-13
v 16 158.5 16
v 16 158.5 16
v 16 158.5 -1.3251325e-13
v 16 2.95184341e-14 -1.3251325e-13
v 16 158.5 16
v 16 2.95184341e-14 -1.3251325e-13
v 16 2.95184341e-14 16
v 884 158.5 -1.3251325e-13
v 16 158.5 -1.3251325e-13
v 16 2.95184341e-14 -1.3251325e-13
v 884 -6.84500742e-14 16
v 884 158.5 16
v 884 158.5 16
v 16 1700 420
v 16 1684 420
v 884 1684 420
v 884 1684 420
v 884 1684 420
v 884 1684 -1.0409154e-13
v 884 1684 -1.0409154e-13
v 884 1700 -1.00538826e-13
v 884 1700 -1.00538826e-13
v 884 1684 -1.0409154e-13
v 16 1684 -1.0409154e-13
v 884 1700 -1.00538826e-13
v 16 1684 -1.0409154e-13
v 16 1700 -1.00538826e-13
v 16 1700 -1.00538826e-13
v 16 1684 -1.0409154e-13
v 16 1684 420
v 16 1700 -1.00538826e-13
v 16 1684 420
v 16 1700 420
v 884 1684 420
v 884 1684 -1.0409154e-13
v 16 1684 -1.0409154e-13
v 884 1700 420
v 884 1700 420
v 1.5 158.5 -1.0409154e-13
v 1.5 158.5 -3
v 898.5 158.5 -3
v 1.5 158.5 -1.0409154e-13
v 898.5 158.5 -3
v 898.5 158.5 -1.0409154e-13
v 898.5 158.5 -1.0409154e-13
v 898.5 158.5 -3
v 898.5 1698.5 -3
v 898.5 158.5 -1.0409154e-13
v 898.5 1698.5 -3
v 898.5 1698.5 -1.0409154e-13
v 898.5 1698.5 -1.0409154e-13
v 898.5 1698.5 -3
v 1.5 1698.5 -3
v 898.5 1698.5 -1.0409154e-13
v 1.5 1698.5 -3
v 1.5 1698.5 -1.0409154e-13
v 1.5 1698.5 -1.0409154e-13
v 1.5 1698.5 -3
v 1.5 158.5 -3
v 1.5 1698.5 -1.0409154e-13
v 1.5 158.5 -3
v 1.5 158.5 -1.0409154e-13
v 898.5 158.5 -3
v 898.5 1698.5 -3
v 1.5 1698.5 -3
v 1.5 158.5 -1.0409154e-13
v 898.5 158.5 -1.0409154e-13
v 898.5 158.5 -1.0409154e-13
v 16 1534.5 420
v 16 1518.5 420
v 884 1518.5 420
v 16 1534.5 420
v 884 1518.5 420
v 884 1534.5 420
v 884 1534.5 420
v 884 1518.5 420
v 884 1518.5 0
v 884 1534.5 420
v 884 1518.5 0
v 884 1534.5 3.55271368e-15
v 884 1534.5 3.55271368e-15
v 884 1518.5 0
v 16 1518.5 0
v 884 1534.5 3.55271368e-15
v 16 1518.5 0
v 16 1534.5 3.55271368e-15
v 16 1534.5 3.55271368e-15
v 16 1518.5 0
v 16 1518.5 420
v 16 1534.5 3.55271368e-15
v 16 1518.5 420
v 16 1534.5 420
v 884 1518.5 420
v 884 1518.5 0
v 16 1518.5 0
v 16 1534.5 420
v 884 1534.5 420
v 884 1534.5 420
v 16 1134.5 420
v 16 1118.5 420
v 884 1118.5 420
v 16 1134.5 420
v 884 1118.5 420
v 884 1134.5 420
v 884 1134.5 420
v 884 1118.5 420
v 884 1118.5 0
v 884 1134.5 420
v 884 1118.5 0
v 884 1134.5 3.55271368e-15
v 884 1134.5 3.55271368e-15
v 884 1118.5 0
v 16 1118.5 0
v 884 1134.5 3.55271368e-15
v 16 1118.5 0
v 16 1134.5 3.55271368e-15
v 16 1134.5 3.55271368e-15
v 16 1118.5 0
v 16 1118.5 420
v 16 1134.5 3.55271368e-15
v 16 1118.5 420
v 16 1134.5 420
v 884 1118.5 420
v 884 1118.5 0
v 16 1118.5 0
v 16 1134.5 420
v 884 1134.5 420
v 884 1134.5 420
v 16 814.5 420
v 16 798.5 420
v 884 798.5 420
v 16 814.5 420
v 884 798.5 420
v 884 814.5 420
v 884 814.5 420
v 884 798.5 420
v 884 798.5 0
v 884 814.5 420
v 884 798.5 0
v 884 814.5 3.55271368e-15
v 884 814.5 3.55271368e-15
v 884 798.5 0
v 16 798.5 0
v 884 814.5 3.55271368e-15
v 16 798.5 0
v 16 814.5 3.55271368e-15
v 16 814.5 3.55271368e-15
v 16 798.5 0
v 16 798.5 420
v 16 814.5 3.55271368e-15
v 16 798.5 420
v 16 814.5 420
v 884 798.5 420
v 884 798.5 0
v 16 798.5 0
v 16 814.5 420
v 884 814.5 420
v 884 814.5 420
v 16 494.5 420
v 16 478.5 420
v 884 478.5 420
v 16 494.5 420
v 884 478.5 420
v 884 494.5 420
v 884 494.5 420
v 884 478.5 420
v 884 478.5 0
v 884 494.5 420
v 884 478.5 0
v 884 494.5 3.55271368e-15
v 884 494.5 3.55271368e-15
v 884 478.5 0
v 16 478.5 0
v 884 494.5 3.55271368e-15
v 16 478.5 0
v 16 494.5 3.55271368e-15
v 16 494.5 3.55271368e-15
v 16 478.5 0
v 16 478.5 420
v 16 494.5 3.55271368e-15
v 16 478.5 420
v 16 494.5 420
v 884 478.5 420
v 884 478.5 0
v 16 478.5 0
v 16 494.5 420
v 884 494.5 420
v 884 494.5 420
v 16 174.5 420
v 16 158.5 420
v 884 158.5 420
v 16 174.5 420
v 884 158.5 420
v 884 174.5 420
v 884 174.5 420
v 884 158.5 420
v 884 158.5 0
v 884 174.5 420
v 884 158.5 0
v 884 174.5 3.55271368e-15
v 884 174.5 3.55271368e-15
v 884 158.5 0
v 16 158.5 0
v 884 174.5 3.55271368e-15
v 16 158.5 0
v 16 174.5 3.55271368e-15
v 16 174.5 3.55271368e-15
v 16 158.5 0
v 16 158.5 420
v 16 174.5 3.55271368e-15
v 16 158.5 420
v 16 174.5 420
v 884 158.5 420
v 884 158.5 0
v 16 158.5 0
v 16 174.5 420
v 884 174.5 420
v 884 174.5 420

# 57 UV coordinates
vt -16 -9.79685083e-16 0
vt 0 0 0
vt 2.57167334e-14 -420 0
vt -16 -420 0
vt 1.0409154e-13 -1700 0
vt -16 -1700 0
vt -0.0160000008 -9.7968511e-19 0
vt 1.04091541e-16 -1.70000005 0
vt -0.0160000008 -1.70000005 0
vt -0.400000006 0 0
vt 0.0199999996 0 0
vt 0.0199999996 -1.70000005 0
vt -0.400000006 -1.70000005 0
vt 0 -1.70000005 0
vt 0.419999987 0 0
vt 0.419999987 -1.70000005 0
vt -0.400000006 -4.66075044e-35 0
vt 0.0199999996 -4.66075044e-35 0
vt 2.08166817e-17 -1.70000005 0
vt 2.08166817e-17 -4.66075044e-35 0
vt 0.419999987 -4.66075044e-35 0
vt 5.31479161e-17 -0.867999971 0
vt -0.0160000008 -0.867999971 0
vt 9.70500572e-18 -0.158500001 0
vt -0.0160000008 -0.158500001 0
vt -0.899999976 -0.158500001 0
vt -0.899999976 -9.79685057e-17 0
vt -0.0320000015 -9.79685057e-17 0
vt -0.0320000015 -0.158500001 0
vt -1.97758476e-16 -9.79685057e-17 0
vt 0.867999971 -9.79685057e-17 0
vt 0.867999971 -0.158500001 0
vt -1.97758476e-16 -0.158500001 0
vt 5.31479158e-14 -868 0
vt -16 -868 0
vt 2.57167342e-17 -0.419999987 0
vt -0.0160000008 -0.419999987 0
vt -1.06169651e-16 0.899999976 0
vt -5.30217214e-17 0.0320000015 0
vt -0.419999987 0.0320000015 0
vt -0.419999987 0.899999976 0
vt -0.419999987 3.04067887e-17 0
vt -5.10616872e-17 5.6122709e-17 0
vt 2.08624215e-18 -0.867999971 0
vt -0.419999987 -0.867999971 0
vt -0.00300000003 -1.83690952e-19 0
vt 5.49235949e-17 -0.897000015 0
vt -0.00300000003 -0.897000015 0
vt 9.42946922e-17 -1.53999996 0
vt -0.00300000003 -1.53999996 0
vt -0.899999976 4.38017678e-17 0
vt -0.00300000003 4.38017678e-17 0
vt -0.899999976 -1.53999996 0
vt 8.45677695e-18 -1.53999996 0
vt 8.45677695e-18 4.38017678e-17 0
vt 0.897000015 4.38017678e-17 0
vt 0.897000015 -1.53999996 0

# 21 vertex normals
vn 3.43133648e-32 -1 1.54533657e-16
vn 2.22044605e-16 -6.68746078e-17 1
vn 0 1 0
vn -2.22044605e-16 5.22457896e-17 -1
vn 1 0 -2.22044605e-16
vn -1 0 2.22044605e-16
vn -1.12866942e-16 -1 0
vn 1 7.17267129e-16 0
vn 9.82317145e-17 1 0
vn -1 0 0
vn 0 0 -1
vn 0 0 1
vn -1.22789642e-16 -2.22044605e-16 1
vn 1 0 0
vn 1.30975619e-16 2.22044605e-16 -1
vn -1 1.69041627e-32 -7.61295809e-17
vn 0 -1 -2.22044605e-16
vn 0 1 2.22044605e-16
vn -1.1089853e-16 -1 0
vn 1 -1.47645241e-16 0
vn -1 1.20971049e-16 0

# Mesh '' with 2 faces
usemtl Кромка АБС белый.альпийский W1100 ST9 0,4*19 /200 Эггер*, м
f  1/1/1 2/2/1 3/3/1
f  4/1/1 5/3/1 6/4/1

# Mesh '' with 2 faces
usemtl Кромка АБС белый.альпийский W1100 ST9 0,4*19 /200 Эггер*, м
f  7/1/2 8/2/2 9/5/2
f  10/1/2 11/5/2 12/6/2

# Mesh '' with 2 faces
usemtl Кромка АБС белый.альпийский W1100 ST9 0,4*19 /200 Эггер*, м
f  13/1/3 14/2/3 15/3/3
f  16/1/3 17/3/3 18/4/3

# Mesh '' with 2 faces
usemtl ЛДСП Белый альпийский W1100 ST9 2800*2070*16 (6 цг) (ЭГ)*
f  19/7/4 20/2/4 21/8/4
f  22/7/4 23/8/4 24/9/4

# Mesh '' with 2 faces
usemtl ЛДСП Белый альпийский W1100 ST9 2800*2070*16 (6 цг) (ЭГ)*
f  25/10/5 2/11/5 15/12/5
f  26/13/5 5/10/5 27/12/5

# Mesh '' with 2 faces
usemtl ЛДСП Белый альпийский W1100 ST9 2800*2070*16 (6 цг) (ЭГ)*
f  19/14/6 28/2/6 29/15/6
f  22/14/6 30/15/6 12/16/6

# Mesh '' with 2 faces
usemtl Кромка АБС белый.альпийский W1100 ST9 0,4*19 /200 Эггер*, м
f  31/1/1 32/2/1 33/3/1
f  34/1/1 35/3/1 36/4/1

# Mesh '' with 2 faces
usemtl Кромка АБС белый.альпийский W1100 ST9 0,4*19 /200 Эггер*, м
f  37/1/2 38/2/2 39/5/2
f  40/1/2 41/5/2 42/6/2

# Mesh '' with 2 faces
usemtl Кромка АБС белый.альпийский W1100 ST9 0,4*19 /200 Эггер*, м
f  43/1/3 44/2/3 45/3/3
f  46/1/3 47/3/3 48/4/3

# Mesh '' with 2 faces
usemtl ЛДСП Белый альпийский W1100 ST9 2800*2070*16 (6 цг) (ЭГ)*
f  49/7/4 50/2/4 51/8/4
f  52/7/4 53/8/4 54/9/4

# Mesh '' with 2 faces
usemtl ЛДСП Белый альпийский W1100 ST9 2800*2070*16 (6 цг) (ЭГ)*
f  55/17/5 32/18/5 45/12/5
f  56/13/5 35/17/5 57/12/5

# Mesh '' with 2 faces
usemtl ЛДСП Белый альпийский W1100 ST9 2800*2070*16 (6 цг) (ЭГ)*
f  49/19/6 58/20/6 59/21/6
f  52/19/6 60/21/6 42/16/6

# Mesh '' with 2 faces
usemtl ЛДСП Белый альпийский W1100 ST9 2800*2070*16 (6 цг) (ЭГ)*
f  61/7/7 62/2/7 63/22/7
f  64/7/7 65/22/7 66/23/7

# Mesh '' with 2 faces
usemtl ЛДСП Белый альпийский W1100 ST9 2800*2070*16 (6 цг) (ЭГ)*
f  67/7/8 68/2/8 69/24/8
f  70/7/8 71/24/8 72/25/8

# Mesh '' with 2 faces
usemtl ЛДСП Белый альпийский W1100 ST9 2800*2070*16 (6 цг) (ЭГ)*
f  73/7/9 74/2/9 75/22/9
f  76/7/9 77/22/9 78/23/9

# Mesh '' with 2 faces
usemtl ЛДСП Белый альпийский W1100 ST9 2800*2070*16 (6 цг) (ЭГ)*
f  79/7/10 80/2/10 81/24/10
f  82/7/10 83/24/10 84/25/10

# Mesh '' with 2 faces
usemtl ЛДСП Белый альпийский W1100 ST9 2800*2070*16 (6 цг) (ЭГ)*
f  85/26/11 68/27/11 81/28/11
f  86/29/11 71/26/11 87/28/11

# Mesh '' with 2 faces
usemtl ЛДСП Белый альпийский W1100 ST9 2800*2070*16 (6 цг) (ЭГ)*
f  61/30/12 88/31/12 89/32/12
f  64/30/12 90/32/12 78/33/12

# Mesh '' with 2 faces
usemtl Кромка АБС белый.альпийский W1100 ST9 0,4*19 /200 Эггер*, м
f  91/1/13 92/2/13 93/34/13
f  26/1/13 94/34/13 42/35/13

# Mesh '' with 2 faces
usemtl ЛДСП Белый альпийский W1100 ST9 2800*2070*16 (6 цг) (ЭГ)*
f  43/7/14 95/2/14 96/36/14
f  46/7/14 97/36/14 98/37/14

# Mesh '' with 2 faces
usemtl ЛДСП Белый альпийский W1100 ST9 2800*2070*16 (6 цг) (ЭГ)*
f  99/7/15 100/2/15 101/22/15
f  102/7/15 103/22/15 104/23/15

# Mesh '' with 2 faces
usemtl ЛДСП Белый альпийский W1100 ST9 2800*2070*16 (6 цг) (ЭГ)*
f  105/7/16 106/2/16 107/36/16
f  108/7/16 109/36/16 110/37/16

# Mesh '' with 2 faces
usemtl ЛДСП Белый альпийский W1100 ST9 2800*2070*16 (6 цг) (ЭГ)*
f  111/38/17 92/39/17 101/40/17
f  112/41/17 94/38/17 113/40/17

# Mesh '' with 2 faces
usemtl ЛДСП Белый альпийский W1100 ST9 2800*2070*16 (6 цг) (ЭГ)*
f  105/42/18 14/43/18 114/44/18
f  108/42/18 115/44/18 98/45/18

# Mesh '' with 2 faces
usemtl ХДФ белая 0110 BASIC 2800*2070*3 (Белоруссия)? 10
f  116/46/19 117/2/19 118/47/19
f  119/46/19 120/47/19 121/48/19

# Mesh '' with 2 faces
usemtl ХДФ белая 0110 BASIC 2800*2070*3 (Белоруссия)? 10
f  122/46/20 123/2/20 124/49/20
f  125/46/20 126/49/20 127/50/20

# Mesh '' with 2 faces
usemtl ХДФ белая 0110 BASIC 2800*2070*3 (Белоруссия)? 10
f  128/46/3 129/2/3 130/47/3
f  131/46/3 132/47/3 133/48/3

# Mesh '' with 2 faces
usemtl ХДФ белая 0110 BASIC 2800*2070*3 (Белоруссия)? 10
f  134/46/21 135/2/21 136/49/21
f  137/46/21 138/49/21 139/50/21

# Mesh '' with 2 faces
usemtl ХДФ белая 0110 BASIC 2800*2070*3 (Белоруссия)? 10
f  140/51/11 117/52/11 130/50/11
f  141/53/11 120/51/11 142/50/11

# Mesh '' with 2 faces
usemtl ХДФ белая 0110 BASIC 2800*2070*3 (Белоруссия)? 10
f  134/54/12 143/55/12 144/56/12
f  137/54/12 145/56/12 127/57/12

# Mesh '' with 2 faces
usemtl Кромка АБС белый.альпийский W1100 ST9 0,4*19 /200 Эггер*, м
f  146/1/13 147/2/13 148/34/13
f  149/1/13 150/34/13 151/35/13

# Mesh '' with 2 faces
usemtl ЛДСП Белый альпийский W1100 ST9 2800*2070*16 (6 цг) (ЭГ)*
f  152/7/14 153/2/14 154/36/14
f  155/7/14 156/36/14 157/37/14

# Mesh '' with 2 faces
usemtl ЛДСП Белый альпийский W1100 ST9 2800*2070*16 (6 цг) (ЭГ)*
f  158/7/15 159/2/15 160/22/15
f  161/7/15 162/22/15 163/23/15

# Mesh '' with 2 faces
usemtl ЛДСП Белый альпийский W1100 ST9 2800*2070*16 (6 цг) (ЭГ)*
f  164/7/16 165/2/16 166/36/16
f  167/7/16 168/36/16 169/37/16

# Mesh '' with 2 faces
usemtl ЛДСП Белый альпийский W1100 ST9 2800*2070*16 (6 цг) (ЭГ)*
f  170/38/17 147/39/17 160/40/17
f  171/41/17 150/38/17 172/40/17

# Mesh '' with 2 faces
usemtl ЛДСП Белый альпийский W1100 ST9 2800*2070*16 (6 цг) (ЭГ)*
f  164/42/18 173/43/18 174/44/18
f  167/42/18 175/44/18 157/45/18

# Mesh '' with 2 faces
usemtl Кромка АБС белый.альпийский W1100 ST9 0,4*19 /200 Эггер*, м
f  176/1/13 177/2/13 178/34/13
f  179/1/13 180/34/13 181/35/13

# Mesh '' with 2 faces
usemtl ЛДСП Белый альпийский W1100 ST9 2800*2070*16 (6 цг) (ЭГ)*
f  182/7/14 183/2/14 184/36/14
f  185/7/14 186/36/14 187/37/14

# Mesh '' with 2 faces
usemtl ЛДСП Белый альпийский W1100 ST9 2800*2070*16 (6 цг) (ЭГ)*
f  188/7/15 189/2/15 190/22/15
f  191/7/15 192/22/15 193/23/15

# Mesh '' with 2 faces
usemtl ЛДСП Белый альпийский W1100 ST9 2800*2070*16 (6 цг) (ЭГ)*
f  194/7/16 195/2/16 196/36/16
f  197/7/16 198/36/16 199/37/16

# Mesh '' with 2 faces
usemtl ЛДСП Белый альпийский W1100 ST9 2800*2070*16 (6 цг) (ЭГ)*
f  200/38/17 177/39/17 190/40/17
f  201/41/17 180/38/17 202/40/17

# Mesh '' with 2 faces
usemtl ЛДСП Белый альпийский W1100 ST9 2800*2070*16 (6 цг) (ЭГ)*
f  194/42/18 203/43/18 204/44/18
f  197/42/18 205/44/18 187/45/18

# Mesh '' with 2 faces
usemtl Кромка АБС белый.альпийский W1100 ST9 0,4*19 /200 Эггер*, м
f  206/1/13 207/2/13 208/34/13
f  209/1/13 210/34/13 211/35/13

# Mesh '' with 2 faces
usemtl ЛДСП Белый альпийский W1100 ST9 2800*2070*16 (6 цг) (ЭГ)*
f  212/7/14 213/2/14 214/36/14
f  215/7/14 216/36/14 217/37/14

# Mesh '' with 2 faces
usemtl ЛДСП Белый альпийский W1100 ST9 2800*2070*16 (6 цг) (ЭГ)*
f  218/7/15 219/2/15 220/22/15
f  221/7/15 222/22/15 223/23/15

# Mesh '' with 2 faces
usemtl ЛДСП Белый альпийский W1100 ST9 2800*2070*16 (6 цг) (ЭГ)*
f  224/7/16 225/2/16 226/36/16
f  227/7/16 228/36/16 229/37/16

# Mesh '' with 2 faces
usemtl ЛДСП Белый альпийский W1100 ST9 2800*2070*16 (6 цг) (ЭГ)*
f  230/38/17 207/39/17 220/40/17
f  231/41/17 210/38/17 232/40/17

# Mesh '' with 2 faces
usemtl ЛДСП Белый альпийский W1100 ST9 2800*2070*16 (6 цг) (ЭГ)*
f  224/42/18 233/43/18 234/44/18
f  227/42/18 235/44/18 217/45/18

# Mesh '' with 2 faces
usemtl Кромка АБС белый.альпийский W1100 ST9 0,4*19 /200 Эггер*, м
f  236/1/13 237/2/13 238/34/13
f  239/1/13 240/34/13 241/35/13

# Mesh '' with 2 faces
usemtl ЛДСП Белый альпийский W1100 ST9 2800*2070*16 (6 цг) (ЭГ)*
f  242/7/14 243/2/14 244/36/14
f  245/7/14 246/36/14 247/37/14

# Mesh '' with 2 faces
usemtl ЛДСП Белый альпийский W1100 ST9 2800*2070*16 (6 цг) (ЭГ)*
f  248/7/15 249/2/15 250/22/15
f  251/7/15 252/22/15 253/23/15

# Mesh '' with 2 faces
usemtl ЛДСП Белый альпийский W1100 ST9 2800*2070*16 (6 цг) (ЭГ)*
f  254/7/16 255/2/16 256/36/16
f  257/7/16 258/36/16 259/37/16

# Mesh '' with 2 faces
usemtl ЛДСП Белый альпийский W1100 ST9 2800*2070*16 (6 цг) (ЭГ)*
f  260/38/17 237/39/17 250/40/17
f  261/41/17 240/38/17 262/40/17

# Mesh '' with 2 faces
usemtl ЛДСП Белый альпийский W1100 ST9 2800*2070*16 (6 цг) (ЭГ)*
f  254/42/18 263/43/18 264/44/18
f  257/42/18 265/44/18 247/45/18

# Mesh '' with 2 faces
usemtl Кромка АБС белый.альпийский W1100 ST9 0,4*19 /200 Эггер*, м
f  266/1/13 267/2/13 268/34/13
f  269/1/13 270/34/13 271/35/13

# Mesh '' with 2 faces
usemtl ЛДСП Белый альпийский W1100 ST9 2800*2070*16 (6 цг) (ЭГ)*
f  272/7/14 273/2/14 274/36/14
f  275/7/14 276/36/14 277/37/14

# Mesh '' with 2 faces
usemtl ЛДСП Белый альпийский W1100 ST9 2800*2070*16 (6 цг) (ЭГ)*
f  278/7/15 279/2/15 280/22/15
f  281/7/15 282/22/15 283/23/15

# Mesh '' with 2 faces
usemtl ЛДСП Белый альпийский W1100 ST9 2800*2070*16 (6 цг) (ЭГ)*
f  284/7/16 285/2/16 286/36/16
f  287/7/16 288/36/16 289/37/16

# Mesh '' with 2 faces
usemtl ЛДСП Белый альпийский W1100 ST9 2800*2070*16 (6 цг) (ЭГ)*
f  290/38/17 267/39/17 280/40/17
f  291/41/17 270/38/17 292/40/17

# Mesh '' with 2 faces
usemtl ЛДСП Белый альпийский W1100 ST9 2800*2070*16 (6 цг) (ЭГ)*
f  284/42/18 293/43/18 294/44/18
f  287/42/18 295/44/18 277/45/18

